<mxfile host="app.diagrams.net" modified="2021-08-27T03:10:33.203Z" agent="5.0 (Windows NT 10.0; Win64; x64) AppleWebKit/537.36 (KHTML, like Gecko) Chrome/92.0.4515.159 Safari/537.36" etag="xwyVtHVoCsWctLvRtmNu" version="14.8.2" type="github">
  <diagram id="5n-Q9Km4UJieLNkVHSz2" name="Page-1">
    <mxGraphModel dx="2170" dy="1150" grid="1" gridSize="10" guides="1" tooltips="1" connect="1" arrows="1" fold="1" page="1" pageScale="1" pageWidth="3300" pageHeight="2339" math="0" shadow="0">
      <root>
        <mxCell id="0" />
        <mxCell id="1" parent="0" />
        <mxCell id="I1L7C43uKd7px7VGqDDD-15" value="" style="rounded=0;whiteSpace=wrap;html=1;fontSize=24;fillColor=none;" vertex="1" parent="1">
          <mxGeometry x="2755" y="23" width="490" height="597" as="geometry" />
        </mxCell>
        <mxCell id="XPhgFUxSdgJl5mHS8CTc-155" value="&lt;font style=&quot;font-size: 16px;&quot;&gt;Web App&lt;/font&gt;" style="rounded=0;whiteSpace=wrap;html=1;fillColor=#d5e8d4;strokeColor=#82b366;fontSize=16;" parent="1" vertex="1">
          <mxGeometry x="90" y="660" width="200" height="60" as="geometry" />
        </mxCell>
        <mxCell id="XPhgFUxSdgJl5mHS8CTc-156" value="&lt;font style=&quot;font-size: 16px;&quot;&gt;CMS&lt;/font&gt;" style="rounded=0;whiteSpace=wrap;html=1;fillColor=#d5e8d4;strokeColor=#82b366;fontSize=16;" parent="1" vertex="1">
          <mxGeometry x="90" y="860" width="200" height="60" as="geometry" />
        </mxCell>
        <mxCell id="XPhgFUxSdgJl5mHS8CTc-159" value="&lt;font style=&quot;font-size: 16px;&quot;&gt;API Gateway&lt;br style=&quot;font-size: 16px;&quot;&gt;&lt;br style=&quot;font-size: 16px;&quot;&gt;Traefik&lt;/font&gt;" style="ellipse;whiteSpace=wrap;html=1;aspect=fixed;fillColor=#dae8fc;strokeColor=#6c8ebf;fontSize=16;" parent="1" vertex="1">
          <mxGeometry x="490" y="615" width="150" height="150" as="geometry" />
        </mxCell>
        <mxCell id="XPhgFUxSdgJl5mHS8CTc-161" value="" style="endArrow=classic;startArrow=none;html=1;exitX=1;exitY=0.5;exitDx=0;exitDy=0;entryX=0;entryY=0.5;entryDx=0;entryDy=0;fontSize=16;startFill=0;" parent="1" source="XPhgFUxSdgJl5mHS8CTc-156" target="XPhgFUxSdgJl5mHS8CTc-159" edge="1">
          <mxGeometry width="50" height="50" relative="1" as="geometry">
            <mxPoint x="590" y="840" as="sourcePoint" />
            <mxPoint x="640" y="790" as="targetPoint" />
          </mxGeometry>
        </mxCell>
        <mxCell id="XPhgFUxSdgJl5mHS8CTc-162" value="" style="endArrow=classic;startArrow=none;html=1;exitX=1;exitY=0.5;exitDx=0;exitDy=0;entryX=0;entryY=0.5;entryDx=0;entryDy=0;fontSize=16;startFill=0;" parent="1" source="XPhgFUxSdgJl5mHS8CTc-155" target="XPhgFUxSdgJl5mHS8CTc-159" edge="1">
          <mxGeometry width="50" height="50" relative="1" as="geometry">
            <mxPoint x="590" y="840" as="sourcePoint" />
            <mxPoint x="520" y="650" as="targetPoint" />
          </mxGeometry>
        </mxCell>
        <mxCell id="XPhgFUxSdgJl5mHS8CTc-163" value="&lt;font style=&quot;font-size: 16px;&quot;&gt;Database&lt;br style=&quot;font-size: 16px;&quot;&gt;MongoDB&lt;/font&gt;" style="shape=cylinder3;whiteSpace=wrap;html=1;boundedLbl=1;backgroundOutline=1;size=15;fillColor=#0050ef;strokeColor=#001DBC;fontColor=#ffffff;fontSize=16;" parent="1" vertex="1">
          <mxGeometry x="2210" y="625" width="120" height="140" as="geometry" />
        </mxCell>
        <mxCell id="XPhgFUxSdgJl5mHS8CTc-166" value="&lt;font style=&quot;font-size: 16px;&quot;&gt;Authentication&lt;br style=&quot;font-size: 16px;&quot;&gt;Service&lt;/font&gt;" style="ellipse;whiteSpace=wrap;html=1;fillColor=#e1d5e7;strokeColor=#9673a6;fontSize=16;" parent="1" vertex="1">
          <mxGeometry x="1270" y="130" width="160" height="90" as="geometry" />
        </mxCell>
        <mxCell id="XPhgFUxSdgJl5mHS8CTc-167" value="&lt;font style=&quot;font-size: 16px;&quot;&gt;Prospects&lt;br style=&quot;font-size: 16px;&quot;&gt;Service&lt;/font&gt;" style="ellipse;whiteSpace=wrap;html=1;fontSize=16;" parent="1" vertex="1">
          <mxGeometry x="750" y="990" width="160" height="90" as="geometry" />
        </mxCell>
        <mxCell id="XPhgFUxSdgJl5mHS8CTc-168" value="" style="endArrow=classic;startArrow=none;html=1;entryX=0;entryY=0.5;entryDx=0;entryDy=0;exitX=1;exitY=0.5;exitDx=0;exitDy=0;fontSize=16;startFill=0;" parent="1" source="XPhgFUxSdgJl5mHS8CTc-159" target="XPhgFUxSdgJl5mHS8CTc-167" edge="1">
          <mxGeometry width="50" height="50" relative="1" as="geometry">
            <mxPoint x="640" y="1000" as="sourcePoint" />
            <mxPoint x="690" y="950" as="targetPoint" />
            <Array as="points">
              <mxPoint x="670" y="690" />
              <mxPoint x="670" y="1035" />
            </Array>
          </mxGeometry>
        </mxCell>
        <mxCell id="XPhgFUxSdgJl5mHS8CTc-170" value="" style="endArrow=classic;startArrow=none;html=1;exitX=1;exitY=0.5;exitDx=0;exitDy=0;entryX=0.5;entryY=1;entryDx=0;entryDy=0;fontSize=16;startFill=0;" parent="1" source="XPhgFUxSdgJl5mHS8CTc-167" target="XPhgFUxSdgJl5mHS8CTc-166" edge="1">
          <mxGeometry width="50" height="50" relative="1" as="geometry">
            <mxPoint x="1180" y="710" as="sourcePoint" />
            <mxPoint x="1230" y="660" as="targetPoint" />
            <Array as="points">
              <mxPoint x="940" y="1000" />
              <mxPoint x="1350" y="1000" />
            </Array>
          </mxGeometry>
        </mxCell>
        <mxCell id="XPhgFUxSdgJl5mHS8CTc-171" value="" style="endArrow=classic;startArrow=none;html=1;exitX=1;exitY=0.5;exitDx=0;exitDy=0;entryX=0.5;entryY=1;entryDx=0;entryDy=0;entryPerimeter=0;fontSize=16;startFill=0;" parent="1" source="XPhgFUxSdgJl5mHS8CTc-167" target="XPhgFUxSdgJl5mHS8CTc-163" edge="1">
          <mxGeometry width="50" height="50" relative="1" as="geometry">
            <mxPoint x="1200" y="730" as="sourcePoint" />
            <mxPoint x="1250" y="680" as="targetPoint" />
            <Array as="points">
              <mxPoint x="2270" y="1030" />
            </Array>
          </mxGeometry>
        </mxCell>
        <mxCell id="XPhgFUxSdgJl5mHS8CTc-173" value="&lt;font style=&quot;font-size: 16px;&quot;&gt;Notifications&lt;br style=&quot;font-size: 16px;&quot;&gt;Service&lt;/font&gt;" style="ellipse;whiteSpace=wrap;html=1;fillColor=#e1d5e7;strokeColor=#9673a6;fontSize=16;" parent="1" vertex="1">
          <mxGeometry x="1680" y="2300" width="160" height="90" as="geometry" />
        </mxCell>
        <mxCell id="XPhgFUxSdgJl5mHS8CTc-174" value="" style="endArrow=classic;html=1;exitX=1;exitY=0.5;exitDx=0;exitDy=0;entryX=0.5;entryY=0;entryDx=0;entryDy=0;fontSize=16;" parent="1" source="XPhgFUxSdgJl5mHS8CTc-167" target="XPhgFUxSdgJl5mHS8CTc-173" edge="1">
          <mxGeometry width="50" height="50" relative="1" as="geometry">
            <mxPoint x="1030" y="1140" as="sourcePoint" />
            <mxPoint x="1080" y="1090" as="targetPoint" />
            <Array as="points">
              <mxPoint x="940" y="1070" />
              <mxPoint x="1760" y="1070" />
            </Array>
          </mxGeometry>
        </mxCell>
        <mxCell id="XPhgFUxSdgJl5mHS8CTc-175" value="&lt;font style=&quot;font-size: 16px;&quot;&gt;Mail&lt;br style=&quot;font-size: 16px;&quot;&gt;Service&lt;/font&gt;" style="ellipse;whiteSpace=wrap;html=1;fillColor=#e1d5e7;strokeColor=#9673a6;fontSize=16;" parent="1" vertex="1">
          <mxGeometry x="1430" y="2510" width="160" height="90" as="geometry" />
        </mxCell>
        <mxCell id="XPhgFUxSdgJl5mHS8CTc-176" value="&lt;font style=&quot;font-size: 16px;&quot;&gt;SMS&lt;br style=&quot;font-size: 16px;&quot;&gt;Service&lt;/font&gt;" style="ellipse;whiteSpace=wrap;html=1;fillColor=#e1d5e7;strokeColor=#9673a6;fontSize=16;" parent="1" vertex="1">
          <mxGeometry x="1680" y="2510" width="160" height="90" as="geometry" />
        </mxCell>
        <mxCell id="XPhgFUxSdgJl5mHS8CTc-177" value="&lt;font style=&quot;font-size: 16px;&quot;&gt;Webpush&lt;br style=&quot;font-size: 16px;&quot;&gt;Service&lt;/font&gt;" style="ellipse;whiteSpace=wrap;html=1;fillColor=#e1d5e7;strokeColor=#9673a6;fontSize=16;" parent="1" vertex="1">
          <mxGeometry x="1940" y="2510" width="160" height="90" as="geometry" />
        </mxCell>
        <mxCell id="XPhgFUxSdgJl5mHS8CTc-178" value="" style="endArrow=classic;html=1;exitX=0.5;exitY=1;exitDx=0;exitDy=0;entryX=0.5;entryY=0;entryDx=0;entryDy=0;fontSize=16;" parent="1" source="XPhgFUxSdgJl5mHS8CTc-173" target="XPhgFUxSdgJl5mHS8CTc-175" edge="1">
          <mxGeometry width="50" height="50" relative="1" as="geometry">
            <mxPoint x="1180" y="2240" as="sourcePoint" />
            <mxPoint x="1230" y="2190" as="targetPoint" />
          </mxGeometry>
        </mxCell>
        <mxCell id="XPhgFUxSdgJl5mHS8CTc-179" value="" style="endArrow=classic;html=1;entryX=0.5;entryY=0;entryDx=0;entryDy=0;exitX=0.5;exitY=1;exitDx=0;exitDy=0;fontSize=16;" parent="1" source="XPhgFUxSdgJl5mHS8CTc-173" target="XPhgFUxSdgJl5mHS8CTc-176" edge="1">
          <mxGeometry width="50" height="50" relative="1" as="geometry">
            <mxPoint x="1550" y="2250" as="sourcePoint" />
            <mxPoint x="1100" y="2290" as="targetPoint" />
          </mxGeometry>
        </mxCell>
        <mxCell id="XPhgFUxSdgJl5mHS8CTc-180" value="" style="endArrow=classic;html=1;exitX=0.5;exitY=1;exitDx=0;exitDy=0;entryX=0.5;entryY=0;entryDx=0;entryDy=0;fontSize=16;" parent="1" source="XPhgFUxSdgJl5mHS8CTc-173" target="XPhgFUxSdgJl5mHS8CTc-177" edge="1">
          <mxGeometry width="50" height="50" relative="1" as="geometry">
            <mxPoint x="1620" y="2240" as="sourcePoint" />
            <mxPoint x="1670" y="2190" as="targetPoint" />
          </mxGeometry>
        </mxCell>
        <mxCell id="XPhgFUxSdgJl5mHS8CTc-182" value="&lt;font style=&quot;font-size: 16px;&quot;&gt;Contacts&lt;br style=&quot;font-size: 16px;&quot;&gt;Service&lt;/font&gt;" style="ellipse;whiteSpace=wrap;html=1;fontSize=16;" parent="1" vertex="1">
          <mxGeometry x="750" y="1190" width="160" height="90" as="geometry" />
        </mxCell>
        <mxCell id="XPhgFUxSdgJl5mHS8CTc-183" value="&lt;font style=&quot;font-size: 16px;&quot;&gt;Mobile App&lt;br style=&quot;font-size: 16px;&quot;&gt;&lt;/font&gt;" style="rounded=0;whiteSpace=wrap;html=1;fillColor=#d5e8d4;strokeColor=#82b366;fontSize=16;" parent="1" vertex="1">
          <mxGeometry x="90" y="480" width="200" height="60" as="geometry" />
        </mxCell>
        <mxCell id="XPhgFUxSdgJl5mHS8CTc-184" value="" style="endArrow=classic;startArrow=none;html=1;exitX=1;exitY=0.5;exitDx=0;exitDy=0;entryX=0;entryY=0.5;entryDx=0;entryDy=0;fontSize=16;startFill=0;" parent="1" source="XPhgFUxSdgJl5mHS8CTc-183" target="XPhgFUxSdgJl5mHS8CTc-159" edge="1">
          <mxGeometry width="50" height="50" relative="1" as="geometry">
            <mxPoint x="780" y="780" as="sourcePoint" />
            <mxPoint x="490" y="690" as="targetPoint" />
          </mxGeometry>
        </mxCell>
        <mxCell id="XPhgFUxSdgJl5mHS8CTc-190" value="" style="endArrow=classic;startArrow=none;html=1;entryX=0;entryY=0.5;entryDx=0;entryDy=0;exitX=1;exitY=0.5;exitDx=0;exitDy=0;fontSize=16;startFill=0;" parent="1" source="XPhgFUxSdgJl5mHS8CTc-159" target="XPhgFUxSdgJl5mHS8CTc-182" edge="1">
          <mxGeometry width="50" height="50" relative="1" as="geometry">
            <mxPoint x="650" y="700" as="sourcePoint" />
            <mxPoint x="1080" y="880" as="targetPoint" />
            <Array as="points">
              <mxPoint x="670" y="690" />
              <mxPoint x="670" y="1235" />
            </Array>
          </mxGeometry>
        </mxCell>
        <mxCell id="XPhgFUxSdgJl5mHS8CTc-191" value="" style="endArrow=classic;startArrow=none;html=1;exitX=1;exitY=0.5;exitDx=0;exitDy=0;entryX=0.5;entryY=1;entryDx=0;entryDy=0;entryPerimeter=0;fontSize=16;startFill=0;" parent="1" source="XPhgFUxSdgJl5mHS8CTc-182" target="XPhgFUxSdgJl5mHS8CTc-163" edge="1">
          <mxGeometry width="50" height="50" relative="1" as="geometry">
            <mxPoint x="930" y="890" as="sourcePoint" />
            <mxPoint x="980" y="840" as="targetPoint" />
            <Array as="points">
              <mxPoint x="2270" y="1230" />
            </Array>
          </mxGeometry>
        </mxCell>
        <mxCell id="XPhgFUxSdgJl5mHS8CTc-192" value="" style="endArrow=classic;startArrow=none;html=1;entryX=0.5;entryY=1;entryDx=0;entryDy=0;exitX=1;exitY=0.5;exitDx=0;exitDy=0;fontSize=16;startFill=0;" parent="1" source="XPhgFUxSdgJl5mHS8CTc-182" target="XPhgFUxSdgJl5mHS8CTc-166" edge="1">
          <mxGeometry width="50" height="50" relative="1" as="geometry">
            <mxPoint x="320" y="1070" as="sourcePoint" />
            <mxPoint x="970" y="540" as="targetPoint" />
            <Array as="points">
              <mxPoint x="930" y="1200" />
              <mxPoint x="1350" y="1200" />
            </Array>
          </mxGeometry>
        </mxCell>
        <mxCell id="XPhgFUxSdgJl5mHS8CTc-193" value="" style="endArrow=classic;html=1;exitX=1;exitY=0.5;exitDx=0;exitDy=0;entryX=0.5;entryY=0;entryDx=0;entryDy=0;fontSize=16;" parent="1" source="XPhgFUxSdgJl5mHS8CTc-182" target="XPhgFUxSdgJl5mHS8CTc-173" edge="1">
          <mxGeometry width="50" height="50" relative="1" as="geometry">
            <mxPoint x="1030" y="990" as="sourcePoint" />
            <mxPoint x="1080" y="940" as="targetPoint" />
            <Array as="points">
              <mxPoint x="930" y="1270" />
              <mxPoint x="1760" y="1270" />
            </Array>
          </mxGeometry>
        </mxCell>
        <mxCell id="nYNfWfQpq2BYYP_-CXCS-1" value="&lt;font style=&quot;font-size: 16px&quot;&gt;Roles &amp;amp;&lt;br&gt;Permission&lt;br style=&quot;font-size: 16px&quot;&gt;Service&lt;/font&gt;" style="ellipse;whiteSpace=wrap;html=1;fontSize=16;" parent="1" vertex="1">
          <mxGeometry x="750" y="350" width="160" height="90" as="geometry" />
        </mxCell>
        <mxCell id="o5t345xqh6htoi6Q9Kq--1" value="&lt;font style=&quot;font-size: 16px&quot;&gt;Admins&lt;br style=&quot;font-size: 16px&quot;&gt;Service&lt;/font&gt;" style="ellipse;whiteSpace=wrap;html=1;fontSize=16;" parent="1" vertex="1">
          <mxGeometry x="750" y="600" width="160" height="90" as="geometry" />
        </mxCell>
        <mxCell id="o5t345xqh6htoi6Q9Kq--2" value="&lt;font style=&quot;font-size: 16px&quot;&gt;Users&lt;br style=&quot;font-size: 16px&quot;&gt;Service&lt;/font&gt;" style="ellipse;whiteSpace=wrap;html=1;fontSize=16;" parent="1" vertex="1">
          <mxGeometry x="750" y="800" width="160" height="90" as="geometry" />
        </mxCell>
        <mxCell id="o5t345xqh6htoi6Q9Kq--4" value="" style="endArrow=classic;html=1;exitX=0.5;exitY=1;exitDx=0;exitDy=0;entryX=0.5;entryY=0;entryDx=0;entryDy=0;" parent="1" source="o5t345xqh6htoi6Q9Kq--1" target="o5t345xqh6htoi6Q9Kq--2" edge="1">
          <mxGeometry width="50" height="50" relative="1" as="geometry">
            <mxPoint x="1410" y="920" as="sourcePoint" />
            <mxPoint x="1460" y="870" as="targetPoint" />
          </mxGeometry>
        </mxCell>
        <mxCell id="o5t345xqh6htoi6Q9Kq--5" value="" style="endArrow=classic;startArrow=none;html=1;entryX=0.5;entryY=1;entryDx=0;entryDy=0;entryPerimeter=0;exitX=1;exitY=0.5;exitDx=0;exitDy=0;startFill=0;" parent="1" source="o5t345xqh6htoi6Q9Kq--2" target="XPhgFUxSdgJl5mHS8CTc-163" edge="1">
          <mxGeometry width="50" height="50" relative="1" as="geometry">
            <mxPoint x="1870" y="1040" as="sourcePoint" />
            <mxPoint x="1460" y="870" as="targetPoint" />
            <Array as="points">
              <mxPoint x="2270" y="840" />
            </Array>
          </mxGeometry>
        </mxCell>
        <mxCell id="o5t345xqh6htoi6Q9Kq--6" value="" style="endArrow=classic;startArrow=none;html=1;exitX=1;exitY=0.5;exitDx=0;exitDy=0;entryX=0;entryY=0.5;entryDx=0;entryDy=0;startFill=0;" parent="1" source="XPhgFUxSdgJl5mHS8CTc-159" target="o5t345xqh6htoi6Q9Kq--1" edge="1">
          <mxGeometry width="50" height="50" relative="1" as="geometry">
            <mxPoint x="1450" y="890" as="sourcePoint" />
            <mxPoint x="1500" y="840" as="targetPoint" />
            <Array as="points">
              <mxPoint x="670" y="690" />
              <mxPoint x="670" y="645" />
            </Array>
          </mxGeometry>
        </mxCell>
        <mxCell id="o5t345xqh6htoi6Q9Kq--8" value="" style="endArrow=classic;startArrow=none;html=1;exitX=1;exitY=0.5;exitDx=0;exitDy=0;entryX=0;entryY=0.5;entryDx=0;entryDy=0;startFill=0;" parent="1" source="XPhgFUxSdgJl5mHS8CTc-159" target="o5t345xqh6htoi6Q9Kq--2" edge="1">
          <mxGeometry width="50" height="50" relative="1" as="geometry">
            <mxPoint x="1020" y="900" as="sourcePoint" />
            <mxPoint x="1070" y="850" as="targetPoint" />
            <Array as="points">
              <mxPoint x="670" y="690" />
              <mxPoint x="670" y="845" />
            </Array>
          </mxGeometry>
        </mxCell>
        <mxCell id="o5t345xqh6htoi6Q9Kq--13" value="&lt;b&gt;&lt;font color=&quot;#ff3333&quot;&gt;Not implemented&lt;/font&gt;&lt;/b&gt;" style="text;html=1;align=center;verticalAlign=middle;resizable=0;points=[];autosize=1;" parent="1" vertex="1">
          <mxGeometry x="1800" y="2560" width="110" height="20" as="geometry" />
        </mxCell>
        <mxCell id="o5t345xqh6htoi6Q9Kq--14" value="&lt;b&gt;&lt;font color=&quot;#ff3333&quot;&gt;Not implemented&lt;/font&gt;&lt;/b&gt;" style="text;html=1;align=center;verticalAlign=middle;resizable=0;points=[];autosize=1;" parent="1" vertex="1">
          <mxGeometry x="2060" y="2560" width="110" height="20" as="geometry" />
        </mxCell>
        <mxCell id="o5t345xqh6htoi6Q9Kq--16" value="&lt;b&gt;&lt;font color=&quot;#ff3333&quot;&gt;Not implemented&lt;/font&gt;&lt;/b&gt;" style="text;html=1;align=center;verticalAlign=middle;resizable=0;points=[];autosize=1;" parent="1" vertex="1">
          <mxGeometry x="260" y="490" width="110" height="20" as="geometry" />
        </mxCell>
        <mxCell id="o5t345xqh6htoi6Q9Kq--19" value="Redis&lt;br&gt;Caching" style="ellipse;whiteSpace=wrap;html=1;fontSize=16;" parent="1" vertex="1">
          <mxGeometry x="2390" y="650" width="160" height="90" as="geometry" />
        </mxCell>
        <mxCell id="o5t345xqh6htoi6Q9Kq--20" value="" style="endArrow=classic;startArrow=classic;html=1;exitX=1;exitY=0.5;exitDx=0;exitDy=0;exitPerimeter=0;entryX=0;entryY=0.5;entryDx=0;entryDy=0;" parent="1" source="XPhgFUxSdgJl5mHS8CTc-163" target="o5t345xqh6htoi6Q9Kq--19" edge="1">
          <mxGeometry width="50" height="50" relative="1" as="geometry">
            <mxPoint x="2510" y="680" as="sourcePoint" />
            <mxPoint x="2560" y="630" as="targetPoint" />
          </mxGeometry>
        </mxCell>
        <mxCell id="o5t345xqh6htoi6Q9Kq--21" value="&lt;b&gt;&lt;font color=&quot;#ff3333&quot;&gt;Not implemented&lt;/font&gt;&lt;/b&gt;" style="text;html=1;align=center;verticalAlign=middle;resizable=0;points=[];autosize=1;" parent="1" vertex="1">
          <mxGeometry x="2510" y="720" width="110" height="20" as="geometry" />
        </mxCell>
        <mxCell id="BdWQ3dxMOT-940gH8wM--1" value="" style="endArrow=classic;startArrow=none;html=1;startFill=0;exitX=0.5;exitY=0;exitDx=0;exitDy=0;" parent="1" source="o5t345xqh6htoi6Q9Kq--1" edge="1">
          <mxGeometry width="50" height="50" relative="1" as="geometry">
            <mxPoint x="910" y="640" as="sourcePoint" />
            <mxPoint x="830" y="440" as="targetPoint" />
            <Array as="points">
              <mxPoint x="830" y="500" />
            </Array>
          </mxGeometry>
        </mxCell>
        <mxCell id="BdWQ3dxMOT-940gH8wM--2" value="" style="endArrow=classic;startArrow=none;html=1;exitX=1;exitY=0.5;exitDx=0;exitDy=0;startFill=0;entryX=1;entryY=0.5;entryDx=0;entryDy=0;" parent="1" source="o5t345xqh6htoi6Q9Kq--2" target="nYNfWfQpq2BYYP_-CXCS-1" edge="1">
          <mxGeometry width="50" height="50" relative="1" as="geometry">
            <mxPoint x="1330" y="460" as="sourcePoint" />
            <mxPoint x="1270" y="40" as="targetPoint" />
            <Array as="points">
              <mxPoint x="960" y="790" />
              <mxPoint x="960" y="420" />
            </Array>
          </mxGeometry>
        </mxCell>
        <mxCell id="HyhClN3A_PucgApUfUjN-1" value="" style="endArrow=classic;html=1;exitX=1;exitY=0.5;exitDx=0;exitDy=0;entryX=0.5;entryY=1;entryDx=0;entryDy=0;startArrow=none;startFill=0;" parent="1" source="o5t345xqh6htoi6Q9Kq--2" target="XPhgFUxSdgJl5mHS8CTc-166" edge="1">
          <mxGeometry width="50" height="50" relative="1" as="geometry">
            <mxPoint x="1110" y="690" as="sourcePoint" />
            <mxPoint x="1160" y="640" as="targetPoint" />
            <Array as="points">
              <mxPoint x="940" y="814" />
              <mxPoint x="1350" y="814" />
            </Array>
          </mxGeometry>
        </mxCell>
        <mxCell id="tQ3KvmpyxeiGOm2Mb360-1" value="" style="endArrow=classic;html=1;exitX=1;exitY=0.5;exitDx=0;exitDy=0;entryX=0.5;entryY=0;entryDx=0;entryDy=0;entryPerimeter=0;" parent="1" source="XPhgFUxSdgJl5mHS8CTc-166" target="XPhgFUxSdgJl5mHS8CTc-163" edge="1">
          <mxGeometry width="50" height="50" relative="1" as="geometry">
            <mxPoint x="1880" y="430" as="sourcePoint" />
            <mxPoint x="1930" y="380" as="targetPoint" />
            <Array as="points">
              <mxPoint x="2270" y="170" />
            </Array>
          </mxGeometry>
        </mxCell>
        <mxCell id="bIBT-U9pfjOBtdSe517i-1" value="" style="endArrow=classic;html=1;exitX=1;exitY=0.5;exitDx=0;exitDy=0;entryX=0.5;entryY=1;entryDx=0;entryDy=0;" parent="1" source="nYNfWfQpq2BYYP_-CXCS-1" target="XPhgFUxSdgJl5mHS8CTc-166" edge="1">
          <mxGeometry width="50" height="50" relative="1" as="geometry">
            <mxPoint x="1440" y="250" as="sourcePoint" />
            <mxPoint x="1290" y="350" as="targetPoint" />
            <Array as="points">
              <mxPoint x="950" y="360" />
              <mxPoint x="1350" y="360" />
            </Array>
          </mxGeometry>
        </mxCell>
        <mxCell id="bIBT-U9pfjOBtdSe517i-2" value="" style="endArrow=classic;html=1;exitX=1;exitY=0.5;exitDx=0;exitDy=0;entryX=0.5;entryY=0;entryDx=0;entryDy=0;entryPerimeter=0;" parent="1" source="nYNfWfQpq2BYYP_-CXCS-1" target="XPhgFUxSdgJl5mHS8CTc-163" edge="1">
          <mxGeometry width="50" height="50" relative="1" as="geometry">
            <mxPoint x="1680" y="330" as="sourcePoint" />
            <mxPoint x="1730" y="280" as="targetPoint" />
            <Array as="points">
              <mxPoint x="2270" y="395" />
            </Array>
          </mxGeometry>
        </mxCell>
        <mxCell id="kFsV82erfkTMYHf6IbA2-1" value="" style="endArrow=classic;html=1;exitX=1;exitY=0.5;exitDx=0;exitDy=0;entryX=0.5;entryY=1;entryDx=0;entryDy=0;" parent="1" source="o5t345xqh6htoi6Q9Kq--1" target="XPhgFUxSdgJl5mHS8CTc-166" edge="1">
          <mxGeometry width="50" height="50" relative="1" as="geometry">
            <mxPoint x="1410" y="710" as="sourcePoint" />
            <mxPoint x="1460" y="660" as="targetPoint" />
            <Array as="points">
              <mxPoint x="940" y="620" />
              <mxPoint x="1040" y="620" />
              <mxPoint x="1350" y="620" />
            </Array>
          </mxGeometry>
        </mxCell>
        <mxCell id="g_RRyhpu5wVXLo7TT_2d-1" value="&lt;font style=&quot;font-size: 16px&quot;&gt;Logs&lt;br style=&quot;font-size: 16px&quot;&gt;Service&lt;/font&gt;" style="ellipse;whiteSpace=wrap;html=1;fillColor=#e1d5e7;strokeColor=#9673a6;fontSize=16;" parent="1" vertex="1">
          <mxGeometry x="2190" y="2300" width="160" height="90" as="geometry" />
        </mxCell>
        <mxCell id="g_RRyhpu5wVXLo7TT_2d-2" value="&lt;b&gt;&lt;font color=&quot;#ff3333&quot;&gt;Not implemented&lt;/font&gt;&lt;/b&gt;" style="text;html=1;align=center;verticalAlign=middle;resizable=0;points=[];autosize=1;" parent="1" vertex="1">
          <mxGeometry x="2300" y="2360" width="110" height="20" as="geometry" />
        </mxCell>
        <mxCell id="viHQmFYoZ_EekoUSks6P-1" value="" style="endArrow=classic;html=1;exitX=1;exitY=0.5;exitDx=0;exitDy=0;entryX=0;entryY=0.5;entryDx=0;entryDy=0;" parent="1" source="XPhgFUxSdgJl5mHS8CTc-159" target="nYNfWfQpq2BYYP_-CXCS-1" edge="1">
          <mxGeometry width="50" height="50" relative="1" as="geometry">
            <mxPoint x="1050" y="620" as="sourcePoint" />
            <mxPoint x="1100" y="570" as="targetPoint" />
            <Array as="points">
              <mxPoint x="670" y="690" />
              <mxPoint x="670" y="395" />
            </Array>
          </mxGeometry>
        </mxCell>
        <mxCell id="vNHtID1zLXJtWvmVe05r-1" value="Vacancies&lt;br&gt;Service" style="ellipse;whiteSpace=wrap;html=1;fontSize=16;" parent="1" vertex="1">
          <mxGeometry x="750" y="1400" width="160" height="90" as="geometry" />
        </mxCell>
        <mxCell id="vNHtID1zLXJtWvmVe05r-2" value="" style="endArrow=classic;startArrow=none;html=1;entryX=0;entryY=0.5;entryDx=0;entryDy=0;exitX=1;exitY=0.5;exitDx=0;exitDy=0;fontSize=16;startFill=0;" parent="1" source="XPhgFUxSdgJl5mHS8CTc-159" target="vNHtID1zLXJtWvmVe05r-1" edge="1">
          <mxGeometry width="50" height="50" relative="1" as="geometry">
            <mxPoint x="650" y="700" as="sourcePoint" />
            <mxPoint x="760" y="1245" as="targetPoint" />
            <Array as="points">
              <mxPoint x="670" y="690" />
              <mxPoint x="670" y="1445" />
            </Array>
          </mxGeometry>
        </mxCell>
        <mxCell id="vNHtID1zLXJtWvmVe05r-3" value="" style="endArrow=classic;startArrow=none;html=1;exitX=1;exitY=0.5;exitDx=0;exitDy=0;fontSize=16;startFill=0;entryX=0.5;entryY=1;entryDx=0;entryDy=0;entryPerimeter=0;" parent="1" source="vNHtID1zLXJtWvmVe05r-1" target="XPhgFUxSdgJl5mHS8CTc-163" edge="1">
          <mxGeometry width="50" height="50" relative="1" as="geometry">
            <mxPoint x="920" y="1245" as="sourcePoint" />
            <mxPoint x="2280" y="760" as="targetPoint" />
            <Array as="points">
              <mxPoint x="2270" y="1445" />
            </Array>
          </mxGeometry>
        </mxCell>
        <mxCell id="vNHtID1zLXJtWvmVe05r-4" value="" style="endArrow=classic;startArrow=none;html=1;entryX=0.5;entryY=1;entryDx=0;entryDy=0;fontSize=16;startFill=0;exitX=1;exitY=0.5;exitDx=0;exitDy=0;" parent="1" source="vNHtID1zLXJtWvmVe05r-1" target="XPhgFUxSdgJl5mHS8CTc-166" edge="1">
          <mxGeometry width="50" height="50" relative="1" as="geometry">
            <mxPoint x="911" y="1445" as="sourcePoint" />
            <mxPoint x="1360" y="-10" as="targetPoint" />
            <Array as="points">
              <mxPoint x="930" y="1410" />
              <mxPoint x="1350" y="1410" />
            </Array>
          </mxGeometry>
        </mxCell>
        <mxCell id="vNHtID1zLXJtWvmVe05r-5" value="" style="endArrow=classic;html=1;exitX=1;exitY=0.5;exitDx=0;exitDy=0;fontSize=16;entryX=0.5;entryY=0;entryDx=0;entryDy=0;" parent="1" source="vNHtID1zLXJtWvmVe05r-1" target="XPhgFUxSdgJl5mHS8CTc-173" edge="1">
          <mxGeometry width="50" height="50" relative="1" as="geometry">
            <mxPoint x="920" y="1245" as="sourcePoint" />
            <mxPoint x="1760" y="1770" as="targetPoint" />
            <Array as="points">
              <mxPoint x="930" y="1490" />
              <mxPoint x="1760" y="1490" />
            </Array>
          </mxGeometry>
        </mxCell>
        <mxCell id="vNHtID1zLXJtWvmVe05r-6" value="Files&lt;br&gt;Service" style="ellipse;whiteSpace=wrap;html=1;fontSize=16;" parent="1" vertex="1">
          <mxGeometry x="750" y="1610" width="160" height="90" as="geometry" />
        </mxCell>
        <mxCell id="vNHtID1zLXJtWvmVe05r-7" value="" style="endArrow=classic;startArrow=none;html=1;entryX=0;entryY=0.5;entryDx=0;entryDy=0;exitX=1;exitY=0.5;exitDx=0;exitDy=0;fontSize=16;startFill=0;" parent="1" source="XPhgFUxSdgJl5mHS8CTc-159" target="vNHtID1zLXJtWvmVe05r-6" edge="1">
          <mxGeometry width="50" height="50" relative="1" as="geometry">
            <mxPoint x="650.0000000000005" y="700" as="sourcePoint" />
            <mxPoint x="759.9999999999995" y="1455" as="targetPoint" />
            <Array as="points">
              <mxPoint x="670" y="690" />
              <mxPoint x="670" y="1655" />
            </Array>
          </mxGeometry>
        </mxCell>
        <mxCell id="vNHtID1zLXJtWvmVe05r-8" value="" style="endArrow=classic;startArrow=none;html=1;exitX=1;exitY=0.5;exitDx=0;exitDy=0;fontSize=16;startFill=0;entryX=0.5;entryY=1;entryDx=0;entryDy=0;entryPerimeter=0;" parent="1" source="vNHtID1zLXJtWvmVe05r-6" target="XPhgFUxSdgJl5mHS8CTc-163" edge="1">
          <mxGeometry width="50" height="50" relative="1" as="geometry">
            <mxPoint x="920" y="1455" as="sourcePoint" />
            <mxPoint x="2280" y="775" as="targetPoint" />
            <Array as="points">
              <mxPoint x="2270" y="1650" />
            </Array>
          </mxGeometry>
        </mxCell>
        <mxCell id="vNHtID1zLXJtWvmVe05r-9" value="" style="endArrow=classic;startArrow=none;html=1;entryX=0.5;entryY=1;entryDx=0;entryDy=0;fontSize=16;startFill=0;exitX=1;exitY=0.5;exitDx=0;exitDy=0;" parent="1" source="vNHtID1zLXJtWvmVe05r-6" target="XPhgFUxSdgJl5mHS8CTc-166" edge="1">
          <mxGeometry width="50" height="50" relative="1" as="geometry">
            <mxPoint x="921" y="1455" as="sourcePoint" />
            <mxPoint x="1360.0000000000005" y="-10" as="targetPoint" />
            <Array as="points">
              <mxPoint x="930" y="1620" />
              <mxPoint x="1350" y="1620" />
            </Array>
          </mxGeometry>
        </mxCell>
        <mxCell id="vNHtID1zLXJtWvmVe05r-15" value="" style="endArrow=classic;html=1;exitX=0.5;exitY=1;exitDx=0;exitDy=0;entryX=0.5;entryY=0;entryDx=0;entryDy=0;" parent="1" source="vNHtID1zLXJtWvmVe05r-1" target="vNHtID1zLXJtWvmVe05r-6" edge="1">
          <mxGeometry width="50" height="50" relative="1" as="geometry">
            <mxPoint x="980" y="1550" as="sourcePoint" />
            <mxPoint x="1030" y="1500" as="targetPoint" />
          </mxGeometry>
        </mxCell>
        <mxCell id="vNHtID1zLXJtWvmVe05r-17" value="Cloud Storage" style="shape=cylinder3;whiteSpace=wrap;html=1;boundedLbl=1;backgroundOutline=1;size=15;fillColor=#0050ef;strokeColor=#001DBC;fontColor=#ffffff;fontSize=16;" parent="1" vertex="1">
          <mxGeometry x="360" y="1620" width="120" height="140" as="geometry" />
        </mxCell>
        <mxCell id="vNHtID1zLXJtWvmVe05r-18" value="" style="endArrow=classic;html=1;entryX=1;entryY=0.5;entryDx=0;entryDy=0;entryPerimeter=0;endFill=1;startArrow=none;startFill=0;" parent="1" target="vNHtID1zLXJtWvmVe05r-17" edge="1">
          <mxGeometry width="50" height="50" relative="1" as="geometry">
            <mxPoint x="750" y="1655" as="sourcePoint" />
            <mxPoint x="660" y="1910" as="targetPoint" />
            <Array as="points">
              <mxPoint x="710" y="1690" />
              <mxPoint x="510" y="1690" />
            </Array>
          </mxGeometry>
        </mxCell>
        <mxCell id="I1L7C43uKd7px7VGqDDD-3" value="News and media&lt;br&gt;Service" style="ellipse;whiteSpace=wrap;html=1;fontSize=16;" vertex="1" parent="1">
          <mxGeometry x="750" y="1820" width="160" height="90" as="geometry" />
        </mxCell>
        <mxCell id="I1L7C43uKd7px7VGqDDD-4" value="" style="endArrow=classic;startArrow=none;html=1;entryX=0;entryY=0.5;entryDx=0;entryDy=0;exitX=1;exitY=0.5;exitDx=0;exitDy=0;fontSize=16;startFill=0;" edge="1" parent="1" source="XPhgFUxSdgJl5mHS8CTc-159" target="I1L7C43uKd7px7VGqDDD-3">
          <mxGeometry width="50" height="50" relative="1" as="geometry">
            <mxPoint x="640" y="690" as="sourcePoint" />
            <mxPoint x="750" y="1655" as="targetPoint" />
            <Array as="points">
              <mxPoint x="670" y="690" />
              <mxPoint x="670" y="1655" />
              <mxPoint x="670" y="1865" />
            </Array>
          </mxGeometry>
        </mxCell>
        <mxCell id="I1L7C43uKd7px7VGqDDD-5" value="" style="endArrow=classic;html=1;exitX=0.5;exitY=0;exitDx=0;exitDy=0;" edge="1" parent="1" source="I1L7C43uKd7px7VGqDDD-3">
          <mxGeometry width="50" height="50" relative="1" as="geometry">
            <mxPoint x="1050" y="1740" as="sourcePoint" />
            <mxPoint x="830" y="1700" as="targetPoint" />
          </mxGeometry>
        </mxCell>
        <mxCell id="I1L7C43uKd7px7VGqDDD-6" value="" style="endArrow=classic;html=1;entryX=0.5;entryY=1;entryDx=0;entryDy=0;exitX=1;exitY=0.5;exitDx=0;exitDy=0;" edge="1" parent="1" source="I1L7C43uKd7px7VGqDDD-3" target="XPhgFUxSdgJl5mHS8CTc-166">
          <mxGeometry width="50" height="50" relative="1" as="geometry">
            <mxPoint x="1130" y="2085.714285714286" as="sourcePoint" />
            <mxPoint x="1490" y="210" as="targetPoint" />
            <Array as="points">
              <mxPoint x="930" y="1830" />
              <mxPoint x="1350" y="1830" />
            </Array>
          </mxGeometry>
        </mxCell>
        <mxCell id="I1L7C43uKd7px7VGqDDD-7" value="" style="endArrow=classic;html=1;entryX=0.5;entryY=1;entryDx=0;entryDy=0;entryPerimeter=0;exitX=1;exitY=0.5;exitDx=0;exitDy=0;" edge="1" parent="1" source="I1L7C43uKd7px7VGqDDD-3" target="XPhgFUxSdgJl5mHS8CTc-163">
          <mxGeometry width="50" height="50" relative="1" as="geometry">
            <mxPoint x="2270" y="1820" as="sourcePoint" />
            <mxPoint x="1810" y="1210" as="targetPoint" />
            <Array as="points">
              <mxPoint x="2270" y="1865" />
            </Array>
          </mxGeometry>
        </mxCell>
        <mxCell id="I1L7C43uKd7px7VGqDDD-8" value="Public&lt;br&gt;Service" style="ellipse;whiteSpace=wrap;html=1;" vertex="1" parent="1">
          <mxGeometry x="2940" y="83" width="120" height="80" as="geometry" />
        </mxCell>
        <mxCell id="I1L7C43uKd7px7VGqDDD-9" value="Note" style="text;html=1;strokeColor=none;fillColor=none;align=center;verticalAlign=middle;whiteSpace=wrap;rounded=0;fontSize=56;" vertex="1" parent="1">
          <mxGeometry x="2800" y="43" width="40" height="20" as="geometry" />
        </mxCell>
        <mxCell id="I1L7C43uKd7px7VGqDDD-11" value="Private&lt;br&gt;Service" style="ellipse;whiteSpace=wrap;html=1;fillColor=#e1d5e7;strokeColor=#9673a6;" vertex="1" parent="1">
          <mxGeometry x="2940" y="183" width="120" height="80" as="geometry" />
        </mxCell>
        <mxCell id="I1L7C43uKd7px7VGqDDD-12" value="&lt;font style=&quot;font-size: 16px&quot;&gt;App service&lt;/font&gt;" style="rounded=0;whiteSpace=wrap;html=1;fillColor=#d5e8d4;strokeColor=#82b366;fontSize=16;" vertex="1" parent="1">
          <mxGeometry x="2900" y="313" width="200" height="60" as="geometry" />
        </mxCell>
        <mxCell id="I1L7C43uKd7px7VGqDDD-18" value="Storage&lt;br&gt;Service" style="shape=cylinder3;whiteSpace=wrap;html=1;boundedLbl=1;backgroundOutline=1;size=15;fillColor=#0050ef;strokeColor=#001DBC;fontColor=#ffffff;fontSize=16;" vertex="1" parent="1">
          <mxGeometry x="2940" y="410" width="120" height="140" as="geometry" />
        </mxCell>
      </root>
    </mxGraphModel>
  </diagram>
</mxfile>
